#!OML:ASF H:\Dans Jumps\Project 1\Capture day 1\Session 1\subject.ASF
:FULLY-SPECIFIED
:DEGREES
75
root 0.140619 17.5875 -13.6124 7.77938 0.252439 -1.41867
lowerback -2.75743 -0.757708 0.131196
upperback 2.66064 -1.08569 1.71775
thorax 4.32096 -0.564738 1.62913
lowerneck -13.1809 0.57285 -1.96269
upperneck 32.5006 1.01215 1.05952
head 13.0375 0.338948 0.904794
rclavicle 5.91384e-015 -8.54774e-015
rhumerus -24.9777 -27.4468 -75.0283
rradius 26.3544
rwrist 31.9484
rhand -18.2433 -26.1923
rfingers 7.12502
rthumb 8.03554 -56.0196
lclavicle 5.91384e-015 -8.54774e-015
lhumerus -20.6033 4.2973 86.5242
lradius 20.3641
lwrist 0.769534
lhand -24.3069 -3.36187
lfingers 7.12502
lthumb 2.181 26.6067
rfemur -13.3441 -3.69291 20.9337
rtibia 20.6637
rfoot -14.107 -2.92152
rtoes 11.4887
lfemur -13.0474 7.4987 -19.2656
ltibia 18.6151
lfoot -11.0936 5.89004
ltoes -0.568279
76
root 0.140655 17.5875 -13.6159 7.77647 0.266851 -1.42132
lowerback -2.73722 -0.757085 0.138553
upperback 2.66018 -1.0852 1.7239
thorax 4.30898 -0.564341 1.63163
lowerneck -13.1917 0.571032 -1.96919
upperneck 32.502 1.01121 1.06101
head 13.0404 0.337989 0.906488
rclavicle -1.40143e-014 1.33186e-014
rhumerus -24.9276 -27.3128 -75.0742
rradius 26.4083
rwrist 31.8675
rhand -18.2602 -26.147
rfingers 7.12502
rthumb 8.01919 -55.9748
lclavicle -1.40143e-014 1.33186e-014
lhumerus -20.5817 4.22476 86.5159
lradius 20.3968
lwrist 0.812768
lhand -24.303 -3.32215
lfingers 7.12502
lthumb 2.18471 26.6464
rfemur -13.3563 -3.69123 20.9382
rtibia 20.6694
rfoot -14.0963 -2.9379
rtoes 11.491
lfemur -13.0648 7.48202 -19.2629
ltibia 18.6247
lfoot -11.0858 5.89262
ltoes -0.567045
77
root 0.140729 17.5875 -13.6193 7.772 0.279913 -1.42057
lowerback -2.71865 -0.755579 0.144201
upperback 2.66098 -1.08341 1.72838
thorax 4.2992 -0.563338 1.63343
lowerneck -13.2034 0.569699 -1.97325
upperneck 32.5035 1.0109 1.06086
head 13.0435 0.337394 0.907217
rclavicle -6.11263e-015 1.37161e-014
rhumerus -24.8799 -27.1775 -75.1199
rradius 26.4581
rwrist 31.7758
rhand -18.3206 -26.0544
rfingers 7.12502
rthumb 7.96094 -55.8845
lclavicle -6.11263e-015 1.37161e-014
lhumerus -20.5575 4.14992 86.5061
lradius 20.4292
lwrist 0.858825
lhand -24.3092 -3.29634
lfingers 7.12502
lthumb 2.17875 26.6723
rfemur -13.3667 -3.69509 20.9387
rtibia 20.6753
rfoot -14.0855 -2.94822
rtoes 11.4903
lfemur -13.079 7.46655 -19.2641
ltibia 18.634
lfoot -11.0788 5.89512
ltoes -0.57116
78
root 0.140776 17.5874 -13.6224 7.766 0.292388 -1.419
lowerback -2.70141 -0.752588 0.150234
upperback 2.66278 -1.07965 1.73179
thorax 4.29114 -0.561329 1.63401
lowerneck -13.213 0.567544 -1.97557
upperneck 32.5027 1.00891 1.06057
head 13.0453 0.336293 0.907301
rclavicle 1.69464e-014 -1.76918e-014
rhumerus -24.8353 -27.0367 -75.1663
rradius 26.5132
rwrist 31.6878
rhand -18.3749 -25.9913
rfingers 7.12502
rthumb 7.90848 -55.8233
lclavicle 1.69464e-014 -1.76918e-014
lhumerus -20.5288 4.07504 86.4943
lradius 20.4566
lwrist 0.904017
lhand -24.3139 -3.28377
lfingers 7.12502
lthumb 2.17416 26.6849
rfemur -13.3755 -3.70034 20.9381
rtibia 20.6821
rfoot -14.0741 -2.95605
rtoes 11.4847
lfemur -13.0897 7.45239 -19.266
ltibia 18.6416
lfoot -11.0717 5.89689
ltoes -0.575221
79
root 0.14082 17.5874 -13.6254 7.75985 0.304776 -1.417
lowerback -2.68576 -0.748672 0.15639
upperback 2.66366 -1.07465 1.73501
thorax 4.28297 -0.558694 1.63438
lowerneck -13.221 0.564875 -1.97506
upperneck 32.5021 1.00634 1.05738
head 13.0469 0.334907 0.905671
rclavicle 1.80894e-014 -2.78299e-015
rhumerus -24.7967 -26.894 -75.2098
rradius 26.575
rwrist 31.6017
rhand -18.412 -25.9598
rfingers 7.12502
rthumb 7.87271 -55.7933
lclavicle 1.80894e-014 -2.78299e-015
lhumerus -20.4999 4.00211 86.4814
lradius 20.482
lwrist 0.949747
lhand -24.3186 -3.29308
lfingers 7.12502
lthumb 2.16964 26.6756
rfemur -13.3837 -3.70857 20.9368
rtibia 20.6901
rfoot -14.0635 -2.95929
rtoes 11.4799
lfemur -13.0983 7.44082 -19.2685
ltibia 18.6472
lfoot -11.0639 5.8965
ltoes -0.585513
80
root 0.14077 17.5874 -13.6283 7.75446 0.316996 -1.41359
lowerback -2.67128 -0.744458 0.15946
upperback 2.66278 -1.06912 1.73889
thorax 4.2737 -0.555891 1.63719
lowerneck -13.2289 0.561921 -1.97313
upperneck 32.5026 1.0037 1.052
head 13.0489 0.333372 0.902936
rclavicle 7.50412e-015 7.35503e-015
rhumerus -24.7606 -26.7583 -75.2471
rradius 26.6371
rwrist 31.5281
rhand -18.414 -25.9789
rfingers 7.12502
rthumb 7.87081 -55.8124
lclavicle 7.50412e-015 7.35503e-015
lhumerus -20.471 3.93345 86.4674
lradius 20.5024
lwrist 0.994301
lhand -24.3171 -3.3104
lfingers 7.12502
lthumb 2.17106 26.6583
rfemur -13.3923 -3.71572 20.934
rtibia 20.6993
rfoot -14.0537 -2.96239
rtoes 11.4817
lfemur -13.106 7.43089 -19.2723
ltibia 18.6502
lfoot -11.0548 5.89475
ltoes -0.597729
81
root 0.140646 17.5874 -13.631 7.75034 0.330784 -1.41147
lowerback -2.65862 -0.740279 0.163557
upperback 2.66066 -1.06369 1.74307
thorax 4.26416 -0.553107 1.63971
lowerneck -13.2354 0.558889 -1.9689
upperneck 32.503 1.00092 1.04469
head 13.0507 0.331809 0.899018
rclavicle 4.47266e-015 -9.14409e-015
rhumerus -24.726 -26.6377 -75.2792
rradius 26.6984
rwrist 31.4722
rhand -18.3797 -26.0404
rfingers 7.12502
rthumb 7.90388 -55.8727
lclavicle 4.47266e-015 -9.14409e-015
lhumerus -20.444 3.86949 86.4513
lradius 20.5228
lwrist 1.03454
lhand -24.3067 -3.31917
lfingers 7.12502
lthumb 2.18113 26.6494
rfemur -13.4018 -3.72298 20.9333
rtibia 20.7092
rfoot -14.0449 -2.96614
rtoes 11.4905
lfemur -13.114 7.42199 -19.2744
ltibia 18.6513
lfoot -11.0458 5.89108
ltoes -0.615967
82
root 0.140484 17.5875 -13.6335 7.74664 0.344117 -1.40654
lowerback -2.64779 -0.737055 0.163048
upperback 2.65657 -1.05934 1.74771
thorax 4.25375 -0.550996 1.64521
lowerneck -13.2372 0.556697 -1.96765
upperneck 32.504 0.999706 1.03846
head 13.0516 0.330705 0.896249
rclavicle -2.93207e-015 -7.95139e-015
rhumerus -24.6918 -26.5352 -75.3033
rradius 26.7512
rwrist 31.4428
rhand -18.3232 -26.1192
rfingers 7.12502
rthumb 7.95839 -55.9494
lclavicle -2.93207e-015 -7.95139e-015
lhumerus -20.4206 3.81124 86.434
lradius 20.5431
lwrist 1.07302
lhand -24.2942 -3.32008
lfingers 7.12502
lthumb 2.19324 26.6484
rfemur -13.411 -3.73112 20.9297
rtibia 20.7194
rfoot -14.0371 -2.96937
rtoes 11.507
lfemur -13.1211 7.4125 -19.2791
ltibia 18.6509
lfoot -11.0372 5.88747
ltoes -0.631098
83
root 0.140311 17.5877 -13.6359 7.74247 0.356276 -1.40247
lowerback -2.63738 -0.734621 0.16313
upperback 2.6518 -1.05608 1.75308
thorax 4.2429 -0.549424 1.65105
lowerneck -13.2394 0.556052 -1.96845
upperneck 32.5076 1.00113 1.03283
head 13.0536 0.330555 0.894483
rclavicle 3.37934e-015 -1.55052e-014
rhumerus -24.6554 -26.446 -75.3235
rradius 26.7927
rwrist 31.3983
rhand -18.2707 -26.1736
rfingers 7.12502
rthumb 8.00906 -56.0018
lclavicle 3.37934e-015 -1.55052e-014
lhumerus -20.4003 3.76096 86.4147
lradius 20.5661
lwrist 1.10514
lhand -24.2858 -3.31033
lfingers 7.12502
lthumb 2.20138 26.6581
rfemur -13.4187 -3.73939 20.9273
rtibia 20.7286
rfoot -14.0292 -2.97134
rtoes 11.5322
lfemur -13.1271 7.40417 -19.2827
ltibia 18.6502
lfoot -11.0283 5.88177
ltoes -0.639782
84
root 0.140067 17.5878 -13.638 7.73775 0.365501 -1.40023
lowerback -2.62591 -0.732072 0.164609
upperback 2.64523 -1.0527 1.75847
thorax 4.22955 -0.54773 1.65616
lowerneck -13.2362 0.556082 -1.97439
upperneck 32.5103 1.0028 1.03324
head 13.054 0.330678 0.895952
rclavicle -1.37658e-014 1.27222e-014
rhumerus -24.6235 -26.3565 -75.3425
rradius 26.8275
rwrist 31.3629
rhand -18.2334 -26.2075
rfingers 7.12502
rthumb 8.04505 -56.0344
lclavicle -1.37658e-014 1.27222e-014
lhumerus -20.3841 3.71695 86.3922
lradius 20.59
lwrist 1.13139
lhand -24.2922 -3.30516
lfingers 7.12502
lthumb 2.19512 26.6633
rfemur -13.4251 -3.74369 20.9271
rtibia 20.7371
rfoot -14.0206 -2.97549
rtoes 11.548
lfemur -13.1326 7.39886 -19.2839
ltibia 18.6505
lfoot -11.0195 5.87417
ltoes -0.64574
85
root 0.139854 17.5879 -13.64 7.73122 0.374362 -1.39935
lowerback -2.61296 -0.729962 0.168575
upperback 2.63853 -1.04998 1.76375
thorax 4.21519 -0.546291 1.65973
lowerneck -13.2324 0.556759 -1.98356
upperneck 32.5125 1.00518 1.03699
head 13.054 0.331155 0.899383
rclavicle -3.47873e-016 1.98785e-015
rhumerus -24.5935 -26.2702 -75.3608
rradius 26.8514
rwrist 31.3312
rhand -18.232 -26.2051
rfingers 7.12502
rthumb 8.04645 -56.032
lclavicle -3.47873e-016 1.98785e-015
lhumerus -20.3686 3.67925 86.368
lradius 20.6147
lwrist 1.15343
lhand -24.3097 -3.30652
lfingers 7.12502
lthumb 2.17824 26.6621
rfemur -13.4284 -3.74839 20.9284
rtibia 20.7442
rfoot -14.0127 -2.97924
rtoes 11.5616
lfemur -13.1371 7.39474 -19.2834
ltibia 18.6532
lfoot -11.0117 5.8628
ltoes -0.644023
